<svg width="104" height="104" viewBox="0 0 104 104" fill="none" xmlns="http://www.w3.org/2000/svg">
<path d="M46.2222 104V57.9222C40.0593 57.9222 34.137 56.7426 28.4556 54.3833C22.7741 52.0241 17.7667 48.6778 13.4333 44.3444C9.1 40.0111 5.77778 35.0037 3.46667 29.3222C1.15556 23.6407 0 17.7185 0 11.5556V0H11.5556C17.6222 0 23.4963 1.17963 29.1778 3.53889C34.8593 5.89815 39.8667 9.24445 44.2 13.5778C47.1852 16.563 49.6648 19.837 51.6389 23.4C53.613 26.963 55.1296 30.7667 56.1889 34.8111C56.6704 34.137 57.2 33.487 57.7778 32.8611C58.3556 32.2352 58.9815 31.5852 59.6556 30.9111C63.9889 26.5778 68.9963 23.2315 74.6778 20.8722C80.3593 18.513 86.2815 17.3333 92.4444 17.3333H104V28.8889C104 35.0519 102.82 40.9741 100.461 46.6556C98.1019 52.337 94.7556 57.3444 90.4222 61.6778C86.0889 66.0111 81.1056 69.3333 75.4722 71.6444C69.8389 73.9556 63.9407 75.1111 57.7778 75.1111V104H46.2222ZM46.2222 46.2222C46.2222 41.6 45.3315 37.1944 43.55 33.0056C41.7685 28.8167 39.2407 25.0852 35.9667 21.8111C32.6926 18.537 28.9611 16.0093 24.7722 14.2278C20.5833 12.4463 16.1778 11.5556 11.5556 11.5556C11.5556 16.1778 12.4222 20.6074 14.1556 24.8444C15.8889 29.0815 18.3926 32.837 21.6667 36.1111C24.9407 39.3852 28.6963 41.8889 32.9333 43.6222C37.1704 45.3556 41.6 46.2222 46.2222 46.2222ZM57.7778 63.5556C62.4 63.5556 66.8056 62.6889 70.9944 60.9556C75.1833 59.2222 78.9148 56.7185 82.1889 53.4444C85.463 50.1704 87.9907 46.4148 89.7722 42.1778C91.5537 37.9407 92.4444 33.5111 92.4444 28.8889C87.8222 28.8889 83.3926 29.7796 79.1556 31.5611C74.9185 33.3426 71.163 35.8704 67.8889 39.1444C64.6148 42.4185 62.1111 46.15 60.3778 50.3389C58.6444 54.5278 57.7778 58.9333 57.7778 63.5556Z" fill="white"/>
</svg>
