<svg width="16" height="16" viewBox="0 0 16 16" fill="none" xmlns="http://www.w3.org/2000/svg">
<path d="M6.47178 12.9436C7.87723 12.9436 9.17327 12.4891 10.2337 11.7317L14.2228 15.7208C14.4079 15.9059 14.652 15.9985 14.9129 15.9985C15.4599 15.9985 15.847 15.5777 15.847 15.0391C15.847 14.7866 15.7629 14.5426 15.5777 14.3658L11.6139 10.3936C12.447 9.2995 12.9436 7.94455 12.9436 6.47178C12.9436 2.91188 10.0317 0 6.47178 0C2.9203 0 0 2.90347 0 6.47178C0 10.0317 2.91188 12.9436 6.47178 12.9436ZM6.47178 11.5465C3.69455 11.5465 1.39703 9.24901 1.39703 6.47178C1.39703 3.69455 3.69455 1.39703 6.47178 1.39703C9.24901 1.39703 11.5465 3.69455 11.5465 6.47178C11.5465 9.24901 9.24901 11.5465 6.47178 11.5465Z" fill="#416E1D"/>
</svg>
