<svg width="81" height="52" viewBox="0 0 81 52" fill="none" xmlns="http://www.w3.org/2000/svg">
<path d="M0 51.5455V0H7.36364V51.5455H0ZM14.7273 51.5455V0H22.0909V51.5455H14.7273ZM36.8182 51.5455C34.7932 51.5455 33.0597 50.8244 31.6176 49.3824C30.1756 47.9403 29.4545 46.2068 29.4545 44.1818V7.36364C29.4545 5.33864 30.1756 3.60511 31.6176 2.16307C33.0597 0.721023 34.7932 0 36.8182 0H73.6364C75.6614 0 77.3949 0.721023 78.8369 2.16307C80.279 3.60511 81 5.33864 81 7.36364V44.1818C81 46.2068 80.279 47.9403 78.8369 49.3824C77.3949 50.8244 75.6614 51.5455 73.6364 51.5455H36.8182ZM40.5 36.8182H69.9545L60.3818 23.9318L53.3864 33.1364L48.2318 26.325L40.5 36.8182Z" fill="#1C1B1F"/>
</svg>
